<svg xmlns="http://www.w3.org/2000/svg" xmlns:xlink="http://www.w3.org/1999/xlink" width="500" zoomAndPan="magnify" viewBox="0 0 375 374.999991" height="500" preserveAspectRatio="xMidYMid meet" version="1.0"><defs><g/><clipPath id="8f60e0e92c"><path d="M 322 132 L 338 132 L 338 139 L 322 139 Z M 322 132 " clip-rule="nonzero"/></clipPath><clipPath id="68bb18299b"><path d="M 319.714844 115.523438 L 340.785156 120.921875 L 335.570312 141.265625 L 314.5 135.863281 Z M 319.714844 115.523438 " clip-rule="nonzero"/></clipPath><clipPath id="a644e0b0fd"><path d="M 319.714844 115.523438 L 340.785156 120.921875 L 335.570312 141.265625 L 314.5 135.863281 Z M 319.714844 115.523438 " clip-rule="nonzero"/></clipPath><clipPath id="ae9a3fccf1"><path d="M 319.714844 115.523438 L 340.785156 120.921875 L 335.570312 141.265625 L 314.5 135.863281 Z M 319.714844 115.523438 " clip-rule="nonzero"/></clipPath><clipPath id="4af437e893"><path d="M 320 123 L 333 123 L 333 134 L 320 134 Z M 320 123 " clip-rule="nonzero"/></clipPath><clipPath id="8517e1a8b6"><path d="M 319.714844 115.523438 L 340.785156 120.921875 L 335.570312 141.265625 L 314.5 135.863281 Z M 319.714844 115.523438 " clip-rule="nonzero"/></clipPath><clipPath id="1cde5f25a9"><path d="M 319.714844 115.523438 L 340.785156 120.921875 L 335.570312 141.265625 L 314.5 135.863281 Z M 319.714844 115.523438 " clip-rule="nonzero"/></clipPath><clipPath id="09dc4dfeb7"><path d="M 319.714844 115.523438 L 340.785156 120.921875 L 335.570312 141.265625 L 314.5 135.863281 Z M 319.714844 115.523438 " clip-rule="nonzero"/></clipPath><clipPath id="0234da4063"><path d="M 316 116 L 326 116 L 326 130 L 316 130 Z M 316 116 " clip-rule="nonzero"/></clipPath><clipPath id="94f87c6913"><path d="M 319.714844 115.523438 L 340.785156 120.921875 L 335.570312 141.265625 L 314.5 135.863281 Z M 319.714844 115.523438 " clip-rule="nonzero"/></clipPath><clipPath id="5b7e1cc974"><path d="M 319.714844 115.523438 L 340.785156 120.921875 L 335.570312 141.265625 L 314.5 135.863281 Z M 319.714844 115.523438 " clip-rule="nonzero"/></clipPath><clipPath id="06fadef836"><path d="M 319.714844 115.523438 L 340.785156 120.921875 L 335.570312 141.265625 L 314.5 135.863281 Z M 319.714844 115.523438 " clip-rule="nonzero"/></clipPath><clipPath id="a6610d24fa"><path d="M 50 117 L 61 117 L 61 131 L 50 131 Z M 50 117 " clip-rule="nonzero"/></clipPath><clipPath id="1fe274ff24"><path d="M 40.816406 141.160156 L 37.539062 119.65625 L 58.300781 116.492188 L 61.578125 137.992188 Z M 40.816406 141.160156 " clip-rule="nonzero"/></clipPath><clipPath id="4d693d3975"><path d="M 40.816406 141.160156 L 37.539062 119.65625 L 58.300781 116.492188 L 61.578125 137.992188 Z M 40.816406 141.160156 " clip-rule="nonzero"/></clipPath><clipPath id="2cb7897e86"><path d="M 40.816406 141.160156 L 37.539062 119.65625 L 58.300781 116.492188 L 61.578125 137.992188 Z M 40.816406 141.160156 " clip-rule="nonzero"/></clipPath><clipPath id="e24cbcbec0"><path d="M 43 125 L 57 125 L 57 134 L 43 134 Z M 43 125 " clip-rule="nonzero"/></clipPath><clipPath id="75362c3887"><path d="M 40.816406 141.160156 L 37.539062 119.65625 L 58.300781 116.492188 L 61.578125 137.992188 Z M 40.816406 141.160156 " clip-rule="nonzero"/></clipPath><clipPath id="f50512cf27"><path d="M 40.816406 141.160156 L 37.539062 119.65625 L 58.300781 116.492188 L 61.578125 137.992188 Z M 40.816406 141.160156 " clip-rule="nonzero"/></clipPath><clipPath id="ff606ad6cb"><path d="M 40.816406 141.160156 L 37.539062 119.65625 L 58.300781 116.492188 L 61.578125 137.992188 Z M 40.816406 141.160156 " clip-rule="nonzero"/></clipPath><clipPath id="aec92bff48"><path d="M 40 134 L 55 134 L 55 140 L 40 140 Z M 40 134 " clip-rule="nonzero"/></clipPath><clipPath id="50648b9411"><path d="M 40.816406 141.160156 L 37.539062 119.65625 L 58.300781 116.492188 L 61.578125 137.992188 Z M 40.816406 141.160156 " clip-rule="nonzero"/></clipPath><clipPath id="fcda202fcd"><path d="M 40.816406 141.160156 L 37.539062 119.65625 L 58.300781 116.492188 L 61.578125 137.992188 Z M 40.816406 141.160156 " clip-rule="nonzero"/></clipPath><clipPath id="d0cb76c9bb"><path d="M 40.816406 141.160156 L 37.539062 119.65625 L 58.300781 116.492188 L 61.578125 137.992188 Z M 40.816406 141.160156 " clip-rule="nonzero"/></clipPath></defs><g clip-path="url(#8f60e0e92c)"><g clip-path="url(#68bb18299b)"><g clip-path="url(#a644e0b0fd)"><g clip-path="url(#ae9a3fccf1)"><path fill="#000000" d="M 327.738281 138.273438 C 329.835938 138.359375 331.9375 138.460938 334.03125 138.222656 C 335.261719 138.085938 336.175781 137.429688 336.789062 136.332031 C 336.84375 136.15625 336.898438 135.976562 336.960938 135.792969 C 337.28125 134.464844 336.351562 133.300781 335.121094 132.988281 C 333.695312 132.628906 332.140625 133.085938 330.773438 133.523438 C 329.34375 133.976562 327.96875 134.589844 326.570312 135.132812 C 325.363281 135.601562 324.128906 135.992188 322.921875 136.460938 C 322.707031 136.550781 322.511719 136.671875 322.332031 136.824219 C 322.152344 136.976562 322.066406 137.171875 322.070312 137.410156 C 322.15625 137.613281 322.28125 137.769531 322.445312 137.878906 C 323.132812 138.078125 323.855469 138.113281 324.570312 138.152344 C 325.625 138.210938 326.683594 138.226562 327.738281 138.273438 Z M 327.738281 138.273438 " fill-opacity="1" fill-rule="evenodd"/></g></g></g></g><g clip-path="url(#4af437e893)"><g clip-path="url(#8517e1a8b6)"><g clip-path="url(#1cde5f25a9)"><g clip-path="url(#09dc4dfeb7)"><path fill="#000000" d="M 326.363281 130.519531 C 327.519531 129.832031 328.683594 129.144531 329.769531 128.347656 C 330.6875 127.671875 331.59375 126.917969 332.171875 125.910156 C 332.582031 124.726562 331.949219 123.335938 330.605469 123.335938 C 329.214844 123.332031 328 124.03125 326.914062 124.867188 C 325.820312 125.710938 324.820312 126.675781 323.945312 127.746094 C 322.867188 129.070312 321.703125 130.347656 320.796875 131.800781 C 320.59375 132.121094 320.296875 132.542969 320.296875 132.941406 C 320.296875 133.171875 320.460938 133.398438 320.703125 133.3125 C 322.691406 132.605469 324.550781 131.597656 326.363281 130.519531 Z M 326.363281 130.519531 " fill-opacity="1" fill-rule="evenodd"/></g></g></g></g><g clip-path="url(#0234da4063)"><g clip-path="url(#94f87c6913)"><g clip-path="url(#5b7e1cc974)"><g clip-path="url(#06fadef836)"><path fill="#000000" d="M 316.582031 128.148438 C 316.523438 128.417969 316.480469 128.695312 316.46875 128.972656 C 316.464844 129.097656 316.457031 129.234375 316.480469 129.359375 C 316.542969 129.65625 316.902344 129.699219 317.128906 129.578125 C 317.226562 129.53125 317.308594 129.464844 317.390625 129.390625 C 319.222656 127.757812 320.796875 125.847656 322.21875 123.839844 C 322.992188 122.746094 323.761719 121.628906 324.390625 120.441406 C 324.71875 119.800781 324.9375 119.117188 325.039062 118.394531 C 325.097656 117.433594 324.675781 116.824219 323.769531 116.5625 C 323.355469 116.515625 322.960938 116.582031 322.582031 116.761719 C 321.199219 117.5625 320.269531 118.875 319.492188 120.253906 C 318.121094 122.691406 317.175781 125.417969 316.582031 128.148438 Z M 316.582031 128.148438 " fill-opacity="1" fill-rule="evenodd"/></g></g></g></g><g clip-path="url(#a6610d24fa)"><g clip-path="url(#1fe274ff24)"><g clip-path="url(#4d693d3975)"><g clip-path="url(#2cb7897e86)"><path fill="#000000" d="M 58.609375 124.871094 C 57.871094 122.90625 57.140625 120.933594 56.101562 119.097656 C 55.496094 118.023438 54.535156 117.4375 53.285156 117.300781 C 53.101562 117.320312 52.914062 117.339844 52.71875 117.355469 C 51.375 117.582031 50.664062 118.890625 50.859375 120.148438 C 51.085938 121.597656 52.117188 122.851562 53.050781 123.9375 C 54.03125 125.074219 55.132812 126.097656 56.179688 127.171875 C 57.085938 128.101562 57.925781 129.085938 58.832031 130.011719 C 58.996094 130.171875 59.183594 130.304688 59.394531 130.410156 C 59.605469 130.515625 59.820312 130.519531 60.035156 130.421875 C 60.191406 130.265625 60.285156 130.089844 60.320312 129.894531 C 60.234375 129.183594 59.984375 128.507812 59.742188 127.835938 C 59.382812 126.839844 58.984375 125.859375 58.609375 124.871094 Z M 58.609375 124.871094 " fill-opacity="1" fill-rule="evenodd"/></g></g></g></g><g clip-path="url(#e24cbcbec0)"><g clip-path="url(#75362c3887)"><g clip-path="url(#f50512cf27)"><g clip-path="url(#ff606ad6cb)"><path fill="#000000" d="M 52.015625 129.167969 C 50.929688 128.375 49.84375 127.574219 48.679688 126.886719 C 47.699219 126.308594 46.65625 125.765625 45.5 125.632812 C 44.25 125.71875 43.21875 126.84375 43.742188 128.082031 C 44.285156 129.359375 45.40625 130.203125 46.597656 130.875 C 47.800781 131.550781 49.082031 132.09375 50.410156 132.480469 C 52.050781 132.957031 53.679688 133.523438 55.375 133.792969 C 55.746094 133.851562 56.253906 133.960938 56.617188 133.804688 C 56.828125 133.714844 56.976562 133.476562 56.800781 133.285156 C 55.375 131.734375 53.714844 130.417969 52.015625 129.167969 Z M 52.015625 129.167969 " fill-opacity="1" fill-rule="evenodd"/></g></g></g></g><g clip-path="url(#aec92bff48)"><g clip-path="url(#50648b9411)"><g clip-path="url(#fcda202fcd)"><g clip-path="url(#d0cb76c9bb)"><path fill="#000000" d="M 53.660156 139.097656 C 53.933594 139.046875 54.203125 138.980469 54.464844 138.882812 C 54.582031 138.835938 54.710938 138.789062 54.816406 138.71875 C 55.066406 138.546875 54.964844 138.199219 54.765625 138.035156 C 54.683594 137.96875 54.585938 137.914062 54.492188 137.871094 C 52.269531 136.824219 49.898438 136.121094 47.492188 135.601562 C 46.179688 135.316406 44.851562 135.042969 43.511719 134.933594 C 42.792969 134.878906 42.082031 134.949219 41.375 135.136719 C 40.46875 135.457031 40.074219 136.085938 40.1875 137.023438 C 40.304688 137.417969 40.523438 137.757812 40.835938 138.035156 C 42.113281 138.992188 43.6875 139.335938 45.257812 139.511719 C 48.039062 139.820312 50.917969 139.621094 53.660156 139.097656 Z M 53.660156 139.097656 " fill-opacity="1" fill-rule="evenodd"/></g></g></g></g><path stroke-linecap="butt" transform="matrix(0.75, 0, 0, 0.75, 41.684731, 139.246661)" fill="none" stroke-linejoin="miter" d="M 11.967235 76.43154 C 20.383902 76.43154 27.404736 71.124248 31.972445 62.624247 C 32.39432 69.410706 36.482862 73.816957 43.264112 73.816957 C 56.331821 73.816957 67.68078 55.686747 67.68078 38.270079 C 67.68078 24.384662 60.659947 12.217994 39.83182 12.217994 C 21.123486 12.217994 7.956818 24.066953 7.956818 38.030496 C 7.956818 44.233621 11.467235 49.95758 18.17036 49.95758 C 26.087028 49.95758 31.154736 39.665913 28.883903 39.327371 C 27.087028 39.327371 25.769319 37.530496 25.769319 35.176329 C 25.769319 26.759662 33.368278 23.150287 41.05057 23.150287 C 52.321404 23.150287 55.514113 29.290912 55.514113 36.233621 C 55.514113 45.869038 50.368279 56.900289 43.264112 56.900289 C 40.472445 56.900289 39.337028 55.264872 39.337028 53.150288 C 39.337028 48.244038 45.378696 36.895079 46.519321 31.566954 C 47.097446 28.874245 46.357862 27.155495 42.92557 27.155495 C 40.472445 27.155495 38.67557 28.212787 37.618278 31.087787 C 36.222445 34.598204 34.665153 38.770079 33.290153 42.436746 C 29.441195 52.254455 22.998486 56.421122 17.930777 56.421122 C 13.42036 56.421122 9.909943 53.967997 9.909943 50.358622 C 9.909943 49.80133 9.352652 49.379455 8.696401 49.379455 C 2.149526 49.379455 -2.178599 56.004455 -2.178599 62.707581 C -2.178599 69.488831 1.909943 76.43154 11.967235 76.43154 Z M 84.019323 28.79612 C 88.269323 28.79612 91.618282 27.155495 92.118282 22.092995 C 92.514115 17.025286 89.165157 15.467994 84.993281 15.467994 C 80.508906 15.467994 76.837031 17.181536 76.837031 22.988828 C 76.837031 27.316953 80.107865 28.79612 84.019323 28.79612 Z M 74.962031 72.999248 C 85.493282 72.999248 90.722449 56.983622 93.331824 52.572163 C 94.149532 51.098205 90.962032 48.64508 89.665157 50.619038 C 88.02974 53.072163 86.472448 54.686747 84.019323 54.686747 C 81.821406 54.686747 80.347448 53.311747 80.347448 50.619038 C 80.347448 46.20758 84.019323 40.801329 84.019323 35.816954 C 84.019323 33.202371 82.962031 32.145079 81.243281 32.145079 C 76.597448 32.145079 73.243281 38.770079 69.477655 50.619038 C 68.258905 54.525289 67.441197 58.936747 67.441197 62.785706 C 67.441197 68.509664 69.477655 72.999248 74.962031 72.999248 Z M 121.274534 50.619038 C 119.654742 53.072163 117.9412 54.869039 115.488075 54.947164 C 114.40995 49.879455 110.081825 43.337788 110.081825 41.780496 C 110.081825 38.509663 116.045367 38.270079 115.967242 35.655496 C 116.045367 33.040912 113.592242 30.10862 108.524533 30.10862 C 101.503699 30.10862 95.696407 42.280496 89.915157 50.119038 L 89.576615 50.619038 C 84.665156 58.775289 86.383907 72.921123 100.764116 72.921123 C 115.967242 72.921123 122.670367 57.400289 124.962034 52.650288 C 125.701618 51.098205 122.587034 48.64508 121.274534 50.619038 Z M 97.831824 56.08258 C 95.139115 56.08258 93.264115 54.608622 93.264115 52.650288 C 95.139115 50.280497 97.675574 46.92633 99.706824 43.915913 C 100.446408 42.858621 101.102658 42.858621 101.665158 43.915913 C 102.821408 46.108621 103.477658 48.165913 103.477658 50.119038 C 103.477658 53.467997 101.425574 56.08258 97.831824 56.08258 Z M 124.883909 72.999248 C 130.269326 72.999248 131.326618 68.509664 131.326618 64.342998 L 131.326618 60.671122 C 131.326618 53.389872 135.41516 46.608621 140.144327 46.608621 C 142.04016 46.608621 143.25891 47.587788 143.25891 49.462788 C 143.25891 52.811747 139.425577 58.296122 139.425577 64.499248 C 139.425577 69.072165 141.222452 72.999248 146.607869 72.999248 C 157.63912 72.999248 163.206828 57.139872 165.816203 52.650288 C 166.717245 51.098205 163.446412 48.64508 162.128703 50.619038 C 160.493286 53.072163 158.956828 54.785705 156.503703 54.785705 C 153.889119 54.785705 152.732869 53.467997 152.732869 50.697163 C 152.732869 46.608621 155.347453 43.994038 155.347453 39.665913 C 155.347453 35.577371 152.993286 32.145079 148.003702 32.145079 C 144.394327 32.145079 141.144327 33.858621 138.107868 36.790912 C 136.316202 38.608621 134.998493 38.270079 135.894327 34.915912 C 136.894327 31.087787 139.743285 26.681537 141.857869 21.931536 C 144.232869 16.702369 143.25891 14.249244 139.904743 14.249244 C 133.284951 14.249244 129.529743 26.759662 121.274534 50.619038 C 119.639117 55.264872 118.498492 60.410706 118.498492 64.582581 C 118.498492 69.410706 120.133909 72.999248 124.883909 72.999248 Z M 170.305787 76.43154 C 178.066204 76.43154 185.165163 71.52529 191.133913 62.624247 C 191.55058 69.410706 196.040164 73.816957 203.139123 73.816957 C 212.639123 73.816957 221.691207 65.900289 221.691207 53.55133 C 221.691207 48.483622 219.89954 45.473205 217.784957 43.337788 C 217.363082 42.858621 217.206832 41.858621 218.503707 41.540913 C 224.727666 40.405496 229.055791 34.598204 229.055791 28.212787 C 229.055791 19.556536 220.717249 12.217994 202.982873 12.217994 C 180.837038 12.217994 167.113079 24.306537 167.113079 38.509663 C 167.113079 44.072163 170.623495 49.139872 177.326621 49.139872 C 185.248496 49.139872 189.498497 42.119038 188.040163 38.509663 C 186.243288 38.509663 184.92558 36.712787 184.92558 34.358621 C 184.92558 26.499245 193.107872 23.150287 202.581831 23.150287 C 209.02454 23.150287 214.43079 25.20237 214.43079 30.270079 C 214.43079 35.337787 210.74329 38.108621 207.310998 38.108621 C 204.696414 38.108621 204.139123 35.994037 205.675581 31.566954 C 206.493289 28.874245 205.514123 27.155495 202.081831 27.155495 C 199.628706 27.155495 197.837039 28.212787 196.779747 31.087787 C 195.378705 34.598204 193.826622 38.770079 192.446414 42.436746 C 188.597455 52.33258 181.89433 56.421122 176.430788 56.421122 C 172.180787 56.421122 168.248495 53.967997 168.248495 50.358622 C 168.248495 49.80133 167.691204 49.379455 167.034954 49.379455 C 160.493286 49.379455 156.159953 56.004455 156.159953 62.707581 C 156.159953 69.488831 160.831828 76.43154 170.305787 76.43154 Z M 203.878706 56.08258 C 200.607872 56.08258 199.232872 53.311747 199.232872 50.358622 C 199.232872 47.186746 201.185997 43.994038 204.774539 43.994038 C 208.467248 43.915913 210.102665 46.030496 210.102665 48.322163 C 210.102665 52.171122 207.810998 56.08258 203.878706 56.08258 Z M 265.982877 50.619038 C 264.024543 53.467997 261.811001 54.608622 259.436001 54.608622 L 258.87871 54.608622 C 259.696418 51.915913 260.09746 49.061747 260.09746 46.20758 C 260.09746 35.895079 254.868293 32.145079 248.165167 32.145079 C 235.180791 32.145079 225.706832 47.004455 225.706832 59.275289 C 225.706832 67.775289 231.008916 72.999248 238.352667 72.999248 C 244.4985 72.999248 250.279751 69.410706 254.368293 63.842998 L 255.347459 63.842998 C 263.290168 63.842998 267.279752 57.639872 269.649544 52.650288 C 270.550585 50.775288 266.956835 49.223205 265.982877 50.619038 Z M 243.019334 56.08258 C 239.909958 56.08258 238.769333 54.046122 238.769333 51.67633 C 238.769333 48.08258 241.462042 44.072163 245.472459 44.072163 C 248.665167 44.072163 249.962042 46.030496 249.962042 48.405497 C 249.962042 51.83258 247.107875 56.08258 243.019334 56.08258 Z M 272.75371 72.999248 C 278.561003 72.999248 283.467253 67.691956 286.738086 61.072164 L 287.055795 61.072164 C 286.081836 67.853414 288.451628 72.999248 294.081837 72.999248 C 303.154754 72.999248 307.644338 60.254456 311.654755 52.650288 C 312.472463 51.098205 309.20163 48.64508 307.982879 50.619038 C 306.347463 53.228413 304.295379 54.785705 301.519337 54.785705 C 297.930795 54.785705 297.029754 51.514872 299.805796 45.55133 C 301.597462 40.801329 303.732879 38.270079 303.732879 35.176329 C 303.732879 33.363829 302.998504 32.145079 300.863087 32.145079 C 297.029754 32.145079 296.451629 35.254454 293.75892 35.254454 C 291.623503 35.254454 291.967253 32.145079 285.420378 32.145079 C 271.37871 32.145079 264.337043 49.30133 264.337043 60.671122 C 264.337043 67.931539 267.206835 72.999248 272.75371 72.999248 Z M 280.930794 56.08258 C 278.399544 56.08258 276.842252 54.447164 276.842252 51.67633 C 276.842252 48.08258 279.534961 44.072163 283.784961 44.072163 C 286.399545 44.072163 288.034961 45.70758 288.034961 48.405497 C 288.034961 51.83258 285.180795 56.08258 280.930794 56.08258 Z M 340.243298 50.619038 C 338.607881 53.072163 337.05059 54.785705 334.618298 54.785705 C 330.925589 54.785705 329.550589 53.072163 329.550589 50.775288 C 329.550589 45.70758 333.061006 42.280496 333.061006 37.608621 C 333.061006 33.202371 325.201631 27.973203 317.524547 27.973203 C 313.113088 27.973203 310.258921 31.98362 310.258921 35.337787 C 310.258921 38.270079 311.316213 39.327371 312.95163 39.905496 C 311.555796 43.67633 309.524546 48.405497 307.967254 50.619038 C 306.909963 52.171122 310.581838 54.785705 311.659963 52.650288 C 312.95163 49.95758 315.649547 44.39508 317.123505 41.139871 C 320.394339 42.358621 321.45163 44.39508 321.45163 45.212788 C 321.45163 49.139872 315.727672 56.822164 315.727672 64.421123 C 315.727672 68.592998 318.019338 72.999248 324.722464 72.999248 C 335.753715 72.999248 341.30059 57.139872 343.915174 52.650288 C 344.83184 51.098205 341.561007 48.64508 340.243298 50.619038 Z M 347.920382 72.999248 C 352.904757 72.999248 357.654758 67.691956 361.003716 61.072164 L 361.326633 61.072164 C 360.425591 67.853414 363.1183 72.999248 368.347467 72.999248 C 377.425592 72.999248 381.909968 60.254456 385.920385 52.650288 C 386.738093 51.098205 383.467259 48.64508 382.253718 50.619038 C 380.618301 53.228413 378.561009 54.785705 375.790176 54.785705 C 372.196425 54.785705 371.300592 51.514872 374.071425 45.55133 L 383.311009 21.931536 C 385.425593 17.285703 384.284968 14.249244 381.436009 14.249244 C 378.977676 14.249244 375.946426 15.645078 372.857884 23.150287 C 369.326634 31.566954 369.326634 36.077371 368.029758 36.077371 C 365.894342 36.077371 366.232883 32.145079 359.691216 32.145079 C 345.64434 32.145079 338.602673 49.30133 338.602673 61.389872 C 338.602673 67.931539 341.477673 72.999248 347.920382 72.999248 Z M 355.363091 56.08258 C 352.248507 56.08258 351.113091 54.046122 351.113091 51.67633 C 351.113091 48.08258 353.805799 44.072163 357.816216 44.072163 C 361.003716 44.072163 362.300591 46.030496 362.300591 48.405497 C 362.300591 51.83258 359.451633 56.08258 355.363091 56.08258 Z M 355.363091 56.08258 " stroke="#070403" stroke-width="5.106969" stroke-opacity="1" stroke-miterlimit="4"/><g fill="#000000" fill-opacity="1"><g transform="translate(42.505043, 193.996658)"><g><path d="M 8.152344 2.574219 C 14.460938 2.574219 19.734375 -1.410156 23.164062 -7.78125 C 23.472656 -2.695312 26.535156 0.613281 31.621094 0.613281 C 41.425781 0.613281 49.945312 -12.992188 49.945312 -26.046875 C 49.945312 -36.464844 44.675781 -45.59375 29.046875 -45.59375 C 15.015625 -45.59375 5.148438 -36.707031 5.148438 -26.230469 C 5.148438 -21.570312 7.78125 -17.28125 12.808594 -17.28125 C 18.753906 -17.28125 22.550781 -25.003906 20.835938 -25.25 C 19.488281 -25.25 18.507812 -26.597656 18.507812 -28.375 C 18.507812 -34.6875 24.207031 -37.382812 29.96875 -37.382812 C 38.425781 -37.382812 40.8125 -32.785156 40.8125 -27.578125 C 40.8125 -20.347656 36.953125 -12.074219 31.621094 -12.074219 C 29.539062 -12.074219 28.679688 -13.296875 28.679688 -14.890625 C 28.679688 -18.570312 33.214844 -27.085938 34.074219 -31.070312 C 34.503906 -33.09375 33.949219 -34.378906 31.375 -34.378906 C 29.539062 -34.378906 28.191406 -33.582031 27.394531 -31.4375 C 26.351562 -28.804688 25.1875 -25.675781 24.144531 -22.917969 C 21.265625 -15.566406 16.421875 -12.441406 12.625 -12.441406 C 9.253906 -12.441406 6.617188 -14.277344 6.617188 -16.976562 C 6.617188 -17.402344 6.191406 -17.710938 5.699219 -17.710938 C 0.796875 -17.710938 -2.453125 -12.746094 -2.453125 -7.722656 C -2.453125 -2.636719 0.613281 2.574219 8.152344 2.574219 Z M 8.152344 2.574219 "/></g></g></g><g fill="#000000" fill-opacity="1"><g transform="translate(92.384834, 193.996658)"><g><path d="M 12.316406 -33.152344 C 15.503906 -33.152344 18.015625 -34.378906 18.382812 -38.179688 C 18.691406 -41.976562 16.179688 -43.144531 13.054688 -43.144531 C 9.683594 -43.144531 6.925781 -41.855469 6.925781 -37.503906 C 6.925781 -34.257812 9.375 -33.152344 12.316406 -33.152344 Z M 5.515625 0 C 13.421875 0 17.34375 -12.011719 19.304688 -15.320312 C 19.917969 -16.421875 17.527344 -18.261719 16.546875 -16.792969 C 15.320312 -14.953125 14.15625 -13.726562 12.316406 -13.726562 C 10.664062 -13.726562 9.558594 -14.769531 9.558594 -16.792969 C 9.558594 -20.101562 12.316406 -24.144531 12.316406 -27.882812 C 12.316406 -29.84375 11.519531 -30.640625 10.234375 -30.640625 C 6.742188 -30.640625 4.226562 -25.675781 1.410156 -16.792969 C 0.492188 -13.851562 -0.121094 -10.539062 -0.121094 -7.660156 C -0.121094 -3.371094 1.410156 0 5.515625 0 Z M 5.515625 0 "/></g></g></g><g fill="#000000" fill-opacity="1"><g transform="translate(107.459071, 193.996658)"><g><path d="M 25.1875 -16.792969 C 23.960938 -14.953125 22.675781 -13.605469 20.835938 -13.542969 C 20.039062 -17.34375 16.792969 -22.246094 16.792969 -23.410156 C 16.792969 -25.859375 21.265625 -26.046875 21.203125 -28.007812 C 21.265625 -29.96875 19.425781 -32.171875 15.628906 -32.171875 C 10.355469 -32.171875 6.003906 -23.042969 1.65625 -17.160156 L 1.410156 -16.792969 C -2.265625 -10.664062 -0.980469 -0.0625 9.804688 -0.0625 C 21.203125 -0.0625 26.230469 -11.703125 27.945312 -15.257812 C 28.496094 -16.421875 26.167969 -18.261719 25.1875 -16.792969 Z M 7.597656 -12.683594 C 5.578125 -12.683594 4.167969 -13.789062 4.167969 -15.257812 C 5.578125 -17.035156 7.476562 -19.550781 9.007812 -21.816406 C 9.558594 -22.613281 10.050781 -22.613281 10.480469 -21.816406 C 11.335938 -20.160156 11.828125 -18.628906 11.828125 -17.160156 C 11.828125 -14.648438 10.296875 -12.683594 7.597656 -12.683594 Z M 7.597656 -12.683594 "/></g></g></g><g fill="#000000" fill-opacity="1"><g transform="translate(131.173426, 193.996658)"><g><path d="M 4.167969 0 C 8.210938 0 9.007812 -3.371094 9.007812 -6.496094 L 9.007812 -9.253906 C 9.007812 -14.707031 12.074219 -19.792969 15.628906 -19.792969 C 17.035156 -19.792969 17.957031 -19.058594 17.957031 -17.648438 C 17.957031 -15.136719 15.074219 -11.03125 15.074219 -6.375 C 15.074219 -2.941406 16.421875 0 20.46875 0 C 28.742188 0 32.910156 -11.890625 34.871094 -15.257812 C 35.542969 -16.421875 33.09375 -18.261719 32.113281 -16.792969 C 30.886719 -14.953125 29.722656 -13.664062 27.882812 -13.664062 C 25.921875 -13.664062 25.066406 -14.648438 25.066406 -16.730469 C 25.066406 -19.792969 27.027344 -21.753906 27.027344 -25.003906 C 27.027344 -28.066406 25.25 -30.640625 21.511719 -30.640625 C 18.8125 -30.640625 16.363281 -29.355469 14.09375 -27.148438 C 12.746094 -25.800781 11.765625 -26.046875 12.441406 -28.558594 C 13.175781 -31.4375 15.320312 -34.746094 16.914062 -38.300781 C 18.691406 -42.222656 17.957031 -44.0625 15.441406 -44.0625 C 10.480469 -44.0625 7.660156 -34.6875 1.472656 -16.792969 C 0.246094 -13.296875 -0.613281 -9.4375 -0.613281 -6.3125 C -0.613281 -2.695312 0.613281 0 4.167969 0 Z M 4.167969 0 "/></g></g></g><g fill="#000000" fill-opacity="1"><g transform="translate(161.873402, 193.996658)"><g><path d="M 7.539062 2.574219 C 13.359375 2.574219 18.691406 -1.101562 23.164062 -7.78125 C 23.472656 -2.695312 26.839844 0.613281 32.171875 0.613281 C 39.28125 0.613281 46.085938 -5.332031 46.085938 -14.585938 C 46.085938 -18.382812 44.734375 -20.652344 43.144531 -22.246094 C 42.835938 -22.613281 42.714844 -23.347656 43.695312 -23.59375 C 48.351562 -24.453125 51.601562 -28.804688 51.601562 -33.582031 C 51.601562 -40.078125 45.347656 -45.59375 32.050781 -45.59375 C 15.441406 -45.59375 5.148438 -36.523438 5.148438 -25.859375 C 5.148438 -21.695312 7.78125 -17.894531 12.808594 -17.894531 C 18.753906 -17.894531 21.9375 -23.164062 20.835938 -25.859375 C 19.488281 -25.859375 18.507812 -27.210938 18.507812 -28.988281 C 18.507812 -34.871094 24.636719 -37.382812 31.746094 -37.382812 C 36.585938 -37.382812 40.628906 -35.851562 40.628906 -32.050781 C 40.628906 -28.25 37.871094 -26.167969 35.296875 -26.167969 C 33.335938 -26.167969 32.910156 -27.761719 34.074219 -31.070312 C 34.6875 -33.09375 33.949219 -34.378906 31.375 -34.378906 C 29.539062 -34.378906 28.191406 -33.582031 27.394531 -31.4375 C 26.351562 -28.804688 25.1875 -25.675781 24.144531 -22.917969 C 21.265625 -15.503906 16.238281 -12.441406 12.132812 -12.441406 C 8.945312 -12.441406 6.003906 -14.277344 6.003906 -16.976562 C 6.003906 -17.402344 5.578125 -17.710938 5.085938 -17.710938 C 0.183594 -17.710938 -3.0625 -12.746094 -3.0625 -7.722656 C -3.0625 -2.636719 0.429688 2.574219 7.539062 2.574219 Z M 32.726562 -12.683594 C 30.273438 -12.683594 29.230469 -14.769531 29.230469 -16.976562 C 29.230469 -19.367188 30.703125 -21.753906 33.398438 -21.753906 C 36.15625 -21.816406 37.382812 -20.222656 37.382812 -18.507812 C 37.382812 -15.628906 35.667969 -12.683594 32.726562 -12.683594 Z M 32.726562 -12.683594 "/></g></g></g><g fill="#000000" fill-opacity="1"><g transform="translate(210.588929, 193.996658)"><g><path d="M 30.578125 -16.792969 C 29.109375 -14.648438 27.453125 -13.789062 25.675781 -13.789062 L 25.25 -13.789062 C 25.859375 -15.8125 26.167969 -17.957031 26.167969 -20.101562 C 26.167969 -27.820312 22.246094 -30.640625 17.21875 -30.640625 C 7.476562 -30.640625 0.367188 -19.488281 0.367188 -10.296875 C 0.367188 -3.921875 4.351562 0 9.867188 0 C 14.460938 0 18.8125 -2.695312 21.878906 -6.863281 L 22.613281 -6.863281 C 28.558594 -6.863281 31.558594 -11.519531 33.335938 -15.257812 C 34.011719 -16.667969 31.316406 -17.832031 30.578125 -16.792969 Z M 13.359375 -12.683594 C 11.03125 -12.683594 10.171875 -14.21875 10.171875 -15.996094 C 10.171875 -18.691406 12.195312 -21.695312 15.199219 -21.695312 C 17.589844 -21.695312 18.570312 -20.222656 18.570312 -18.445312 C 18.570312 -15.871094 16.421875 -12.683594 13.359375 -12.683594 Z M 13.359375 -12.683594 "/></g></g></g><g fill="#000000" fill-opacity="1"><g transform="translate(239.756953, 193.996658)"><g><path d="M 6.496094 0 C 10.847656 0 14.523438 -3.984375 16.976562 -8.945312 L 17.21875 -8.945312 C 16.484375 -3.859375 18.261719 0 22.492188 0 C 29.292969 0 32.664062 -9.558594 35.667969 -15.257812 C 36.277344 -16.421875 33.828125 -18.261719 32.910156 -16.792969 C 31.683594 -14.832031 30.152344 -13.664062 28.066406 -13.664062 C 25.371094 -13.664062 24.695312 -16.117188 26.78125 -20.589844 C 28.128906 -24.144531 29.722656 -26.046875 29.722656 -28.375 C 29.722656 -29.722656 29.171875 -30.640625 27.578125 -30.640625 C 24.695312 -30.640625 24.269531 -28.3125 22.246094 -28.3125 C 20.652344 -28.3125 20.898438 -30.640625 15.996094 -30.640625 C 5.453125 -30.640625 0.183594 -17.773438 0.183594 -9.253906 C 0.183594 -3.800781 2.328125 0 6.496094 0 Z M 12.625 -12.683594 C 10.722656 -12.683594 9.558594 -13.910156 9.558594 -15.996094 C 9.558594 -18.691406 11.582031 -21.695312 14.769531 -21.695312 C 16.730469 -21.695312 17.957031 -20.46875 17.957031 -18.445312 C 17.957031 -15.871094 15.8125 -12.683594 12.625 -12.683594 Z M 12.625 -12.683594 "/></g></g></g><g fill="#000000" fill-opacity="1"><g transform="translate(271.253517, 193.996658)"><g><path d="M 25.617188 -16.792969 C 24.390625 -14.953125 23.226562 -13.664062 21.386719 -13.664062 C 18.628906 -13.664062 17.589844 -14.953125 17.589844 -16.667969 C 17.589844 -20.46875 20.222656 -23.042969 20.222656 -26.535156 C 20.222656 -29.84375 14.339844 -33.765625 8.578125 -33.765625 C 5.269531 -33.765625 3.125 -30.765625 3.125 -28.25 C 3.125 -26.046875 3.921875 -25.25 5.148438 -24.820312 C 4.105469 -22 2.574219 -18.445312 1.410156 -16.792969 C 0.613281 -15.628906 3.371094 -13.664062 4.167969 -15.257812 C 5.148438 -17.28125 7.171875 -21.449219 8.273438 -23.898438 C 10.722656 -22.980469 11.519531 -21.449219 11.519531 -20.835938 C 11.519531 -17.894531 7.230469 -12.132812 7.230469 -6.433594 C 7.230469 -3.308594 8.945312 0 13.972656 0 C 22.246094 0 26.414062 -11.890625 28.375 -15.257812 C 29.046875 -16.421875 26.597656 -18.261719 25.617188 -16.792969 Z M 25.617188 -16.792969 "/></g></g></g><g fill="#000000" fill-opacity="1"><g transform="translate(295.45809, 193.996658)"><g><path d="M 7.171875 0 C 10.910156 0 14.460938 -3.984375 16.976562 -8.945312 L 17.21875 -8.945312 C 16.546875 -3.859375 18.570312 0 22.492188 0 C 29.292969 0 32.664062 -9.558594 35.667969 -15.257812 C 36.277344 -16.421875 33.828125 -18.261719 32.910156 -16.792969 C 31.683594 -14.832031 30.152344 -13.664062 28.066406 -13.664062 C 25.371094 -13.664062 24.695312 -16.117188 26.78125 -20.589844 L 33.707031 -38.300781 C 35.296875 -41.792969 34.441406 -44.0625 32.296875 -44.0625 C 30.457031 -44.0625 28.191406 -43.019531 25.859375 -37.382812 C 23.226562 -31.070312 23.226562 -27.699219 22.246094 -27.699219 C 20.652344 -27.699219 20.898438 -30.640625 15.996094 -30.640625 C 5.453125 -30.640625 0.183594 -17.773438 0.183594 -8.703125 C 0.183594 -3.800781 2.328125 0 7.171875 0 Z M 12.746094 -12.683594 C 10.417969 -12.683594 9.558594 -14.21875 9.558594 -15.996094 C 9.558594 -18.691406 11.582031 -21.695312 14.585938 -21.695312 C 16.976562 -21.695312 17.957031 -20.222656 17.957031 -18.445312 C 17.957031 -15.871094 15.8125 -12.683594 12.746094 -12.683594 Z M 12.746094 -12.683594 "/></g></g></g><path stroke-linecap="butt" transform="matrix(0.75, 0, 0, 0.75, 43.298687, 133.028106)" fill="none" stroke-linejoin="miter" d="M 13.752793 70.207322 C 21.622585 70.207322 28.185086 65.248988 32.455919 57.30628 C 32.846544 63.644822 36.669461 67.764614 43.008003 67.764614 C 55.221546 67.764614 65.830921 50.816696 65.830921 34.540653 C 65.830921 21.561486 59.268421 10.186485 39.804878 10.186485 C 22.315293 10.186485 10.008001 21.264611 10.008001 34.316695 C 10.008001 40.11357 13.289251 45.462529 19.554877 45.462529 C 26.955919 45.462529 31.690294 35.842736 29.565294 35.525028 C 27.88821 35.525028 26.659044 33.847945 26.659044 31.650028 C 26.659044 23.780236 33.763211 20.405235 40.940295 20.405235 C 51.476754 20.405235 54.455921 26.150027 54.455921 32.639611 C 54.455921 41.64482 49.648629 51.952113 43.008003 51.952113 C 40.398628 51.952113 39.336128 50.426071 39.336128 48.446904 C 39.336128 43.86357 44.98717 33.254195 46.04967 28.275028 C 46.591337 25.759402 45.898628 24.155236 42.690295 24.155236 C 40.398628 24.155236 38.721545 25.139611 37.731961 27.827111 C 36.429878 31.108361 34.971544 35.004195 33.685086 38.436487 C 30.086127 47.608362 24.065294 51.504196 19.330918 51.504196 C 15.117376 51.504196 11.836126 49.212529 11.836126 45.837529 C 11.836126 45.316695 11.315293 44.92607 10.695501 44.92607 C 4.580917 44.92607 0.534042 51.113571 0.534042 57.379196 C 0.534042 63.717738 4.356959 70.207322 13.752793 70.207322 Z M 81.096547 25.681277 C 85.065298 25.681277 88.200714 24.155236 88.664256 19.415652 C 89.039256 14.681277 85.903839 13.228152 82.008006 13.228152 C 77.815297 13.228152 74.383005 14.832318 74.383005 20.259402 C 74.383005 24.301069 77.440297 25.681277 81.096547 25.681277 Z M 72.627797 66.998989 C 82.476756 66.998989 87.362173 52.030238 89.799673 47.905237 C 90.565298 46.530237 87.580923 44.233362 86.372589 46.08232 C 84.841339 48.373987 83.388214 49.884404 81.096547 49.884404 C 79.044464 49.884404 77.664255 48.597946 77.664255 46.08232 C 77.664255 41.95732 81.096547 36.905237 81.096547 32.243778 C 81.096547 29.801069 80.106964 28.816694 78.502797 28.816694 C 74.159047 28.816694 71.028838 35.004195 67.502796 46.08232 C 66.36738 49.733362 65.601755 53.853154 65.601755 57.452113 C 65.601755 62.80628 67.502796 66.998989 72.627797 66.998989 Z M 115.914258 46.08232 C 114.403841 48.373987 112.799674 50.051071 110.508008 50.123987 C 109.502799 45.389612 105.455924 39.275028 105.455924 37.821903 C 105.455924 34.764611 111.028841 34.540653 110.955924 32.097945 C 111.028841 29.655236 108.737174 26.915653 103.99759 26.915653 C 97.43509 26.915653 92.013215 38.285445 86.601756 45.61357 L 86.289256 46.08232 C 81.700714 53.707321 83.304881 66.926072 96.74759 66.926072 C 110.955924 66.926072 117.22155 52.420863 119.362175 47.983362 C 120.054883 46.530237 117.143425 44.233362 115.914258 46.08232 Z M 94.008006 51.186487 C 91.487173 51.186487 89.737173 49.811487 89.737173 47.983362 C 91.487173 45.764612 93.856965 42.629195 95.758007 39.816695 C 96.450715 38.827112 97.065298 38.827112 97.586132 39.816695 C 98.669465 41.868779 99.284049 43.785445 99.284049 45.61357 C 99.284049 48.748987 97.362173 51.186487 94.008006 51.186487 Z M 119.289258 66.998989 C 124.320508 66.998989 125.310092 62.80628 125.310092 58.910446 L 125.310092 55.478154 C 125.310092 48.670862 129.133009 42.33232 133.549676 42.33232 C 135.320509 42.33232 136.461134 43.243779 136.461134 44.998987 C 136.461134 48.129196 132.877801 53.259404 132.877801 59.05628 C 132.877801 63.327113 134.560092 66.998989 139.591343 66.998989 C 149.903844 66.998989 155.106969 52.176071 157.549677 47.983362 C 158.388219 46.530237 155.330927 44.233362 154.096552 46.08232 C 152.57051 48.373987 151.13301 49.978154 148.841343 49.978154 C 146.398635 49.978154 145.315302 48.748987 145.315302 46.155237 C 145.315302 42.33232 147.75801 39.889612 147.75801 35.842736 C 147.75801 32.01982 145.560093 28.816694 140.898635 28.816694 C 137.523634 28.816694 134.481967 30.420861 131.648634 33.160445 C 129.971551 34.858361 128.742384 34.540653 129.580926 31.405236 C 130.513217 27.827111 133.179884 23.707319 135.153843 19.269819 C 137.372593 14.384402 136.461134 12.092735 133.325717 12.092735 C 127.138217 12.092735 123.633008 23.780236 115.914258 46.08232 C 114.383008 50.426071 113.320508 55.233363 113.320508 59.134405 C 113.320508 63.644822 114.851758 66.998989 119.289258 66.998989 Z M 161.737178 70.207322 C 168.992386 70.207322 175.627804 65.61878 181.205929 57.30628 C 181.596554 63.644822 185.789263 67.764614 192.429888 67.764614 C 201.304889 67.764614 209.768431 60.363571 209.768431 48.821904 C 209.768431 44.087529 208.091347 41.26982 206.112181 39.275028 C 205.721556 38.827112 205.575722 37.89482 206.784056 37.597945 C 212.601764 36.535445 216.64864 31.108361 216.64864 25.139611 C 216.64864 17.051069 208.856972 10.186485 192.278846 10.186485 C 171.580928 10.186485 158.758011 21.488569 158.758011 34.764611 C 158.758011 39.962528 162.039261 44.702112 168.299678 44.702112 C 175.705929 44.702112 179.674679 38.139612 178.315304 34.764611 C 176.63822 34.764611 175.403845 33.08232 175.403845 30.884403 C 175.403845 23.540652 183.049679 20.405235 191.903846 20.405235 C 197.929888 20.405235 202.981972 22.327111 202.981972 27.061486 C 202.981972 31.795861 199.534055 34.389611 196.325722 34.389611 C 193.883013 34.389611 193.36218 32.415653 194.794471 28.275028 C 195.560096 25.759402 194.648638 24.155236 191.440305 24.155236 C 189.148638 24.155236 187.466346 25.139611 186.481971 27.827111 C 185.174679 31.108361 183.721554 35.004195 182.435096 38.436487 C 178.836137 47.681279 172.570512 51.504196 167.461136 51.504196 C 163.492386 51.504196 159.820511 49.212529 159.820511 45.837529 C 159.820511 45.316695 159.294469 44.92607 158.679886 44.92607 C 152.565302 44.92607 148.518427 51.113571 148.518427 57.379196 C 148.518427 63.717738 152.88301 70.207322 161.737178 70.207322 Z M 193.117388 51.186487 C 190.060096 51.186487 188.773638 48.597946 188.773638 45.837529 C 188.773638 42.873987 190.601763 39.889612 193.95593 39.889612 C 197.409055 39.816695 198.935097 41.790654 198.935097 43.936487 C 198.935097 47.535446 196.789263 51.186487 193.117388 51.186487 Z M 251.159058 46.08232 C 249.330933 48.748987 247.263225 49.811487 245.044475 49.811487 L 244.518433 49.811487 C 245.284058 47.290654 245.659058 44.623987 245.659058 41.95732 C 245.659058 32.321903 240.773641 28.816694 234.508016 28.816694 C 222.36739 28.816694 213.513223 42.70732 213.513223 54.170863 C 213.513223 62.113572 218.471556 66.998989 225.33614 66.998989 C 231.075724 66.998989 236.481974 63.644822 240.304891 58.441696 L 241.221558 58.441696 C 248.638225 58.441696 252.367392 52.644821 254.586142 47.983362 C 255.429892 46.228154 252.070517 44.775029 251.159058 46.08232 Z M 229.695515 51.186487 C 226.789265 51.186487 225.726765 49.285446 225.726765 47.066696 C 225.726765 43.712529 228.24239 39.962528 231.992391 39.962528 C 234.971557 39.962528 236.185099 41.790654 236.185099 44.009404 C 236.185099 47.217737 233.518432 51.186487 229.695515 51.186487 Z M 257.487184 66.998989 C 262.914268 66.998989 267.497601 62.040655 270.554893 55.847946 L 270.856976 55.847946 C 269.94031 62.191697 272.15906 66.998989 277.419477 66.998989 C 285.898644 66.998989 290.096561 55.087529 293.846561 47.983362 C 294.606978 46.530237 291.549686 44.233362 290.414269 46.08232 C 288.883019 48.525029 286.966353 49.978154 284.372602 49.978154 C 281.018435 49.978154 280.174685 46.920862 282.768436 41.342737 C 284.445519 36.905237 286.440311 34.540653 286.440311 31.650028 C 286.440311 29.952111 285.752811 28.816694 283.758019 28.816694 C 280.174685 28.816694 279.638227 31.722945 277.117394 31.722945 C 275.122602 31.722945 275.44031 28.816694 269.325726 28.816694 C 256.200725 28.816694 249.617392 44.847945 249.617392 55.478154 C 249.617392 62.264613 252.304892 66.998989 257.487184 66.998989 Z M 265.133018 51.186487 C 262.763226 51.186487 261.310101 49.660446 261.310101 47.066696 C 261.310101 43.712529 263.825726 39.962528 267.794476 39.962528 C 270.237185 39.962528 271.768435 41.493779 271.768435 44.009404 C 271.768435 47.217737 269.101768 51.186487 265.133018 51.186487 Z M 320.565313 46.08232 C 319.034063 48.373987 317.580938 49.978154 315.304896 49.978154 C 311.856979 49.978154 310.570521 48.373987 310.570521 46.228154 C 310.570521 41.493779 313.851771 38.285445 313.851771 33.92607 C 313.851771 29.801069 306.502812 24.915652 299.325728 24.915652 C 295.205936 24.915652 292.53927 28.665653 292.53927 31.795861 C 292.53927 34.540653 293.528853 35.525028 295.054895 36.066695 C 293.752811 39.592737 291.851769 44.009404 290.393436 46.08232 C 289.409061 47.535446 292.836145 49.978154 293.846561 47.983362 C 295.054895 45.462529 297.575728 40.264612 298.955937 37.222945 C 302.013228 38.36357 302.997604 40.264612 302.997604 41.025028 C 302.997604 44.702112 297.648645 51.879196 297.648645 58.983363 C 297.648645 62.879197 299.794478 66.998989 306.054895 66.998989 C 316.367396 66.998989 321.549688 52.176071 323.992397 47.983362 C 324.851772 46.530237 321.79448 44.233362 320.565313 46.08232 Z M 327.737189 66.998989 C 332.398647 66.998989 336.836147 62.040655 339.966356 55.847946 L 340.263231 55.847946 C 339.424689 62.191697 341.945523 66.998989 346.83094 66.998989 C 355.310107 66.998989 359.508024 55.087529 363.252816 47.983362 C 364.018441 46.530237 360.961149 44.233362 359.825732 46.08232 C 358.294482 48.525029 356.372607 49.978154 353.784065 49.978154 C 350.42469 49.978154 349.586148 46.920862 352.179898 41.342737 L 360.810107 19.269819 C 362.789274 14.926068 361.726774 12.092735 359.060107 12.092735 C 356.76844 12.092735 353.929899 13.394818 351.044482 20.405235 C 347.742398 28.275028 347.742398 32.48857 346.528856 32.48857 C 344.534065 32.48857 344.851773 28.816694 338.737189 28.816694 C 325.612188 28.816694 319.028855 44.847945 319.028855 56.150029 C 319.028855 62.264613 321.711146 66.998989 327.737189 66.998989 Z M 334.690314 51.186487 C 331.784064 51.186487 330.721564 49.285446 330.721564 47.066696 C 330.721564 43.712529 333.237189 39.962528 336.981981 39.962528 C 339.966356 39.962528 341.179898 41.790654 341.179898 44.009404 C 341.179898 47.217737 338.513231 51.186487 334.690314 51.186487 Z M 334.690314 51.186487 " stroke="#000000" stroke-width="5.251008" stroke-opacity="1" stroke-miterlimit="4"/><g fill="#ff8f27" fill-opacity="1"><g transform="translate(45.994, 183.278102)"><g><path d="M 7.617188 2.40625 C 13.515625 2.40625 18.441406 -1.316406 21.652344 -7.273438 C 21.9375 -2.519531 24.800781 0.574219 29.554688 0.574219 C 38.71875 0.574219 46.679688 -12.144531 46.679688 -24.34375 C 46.679688 -34.082031 41.753906 -42.613281 27.148438 -42.613281 C 14.03125 -42.613281 4.8125 -34.308594 4.8125 -24.515625 C 4.8125 -20.160156 7.273438 -16.152344 11.972656 -16.152344 C 17.527344 -16.152344 21.078125 -23.371094 19.472656 -23.597656 C 18.214844 -23.597656 17.296875 -24.859375 17.296875 -26.519531 C 17.296875 -32.417969 22.625 -34.9375 28.007812 -34.9375 C 35.914062 -34.9375 38.148438 -30.644531 38.148438 -25.773438 C 38.148438 -19.015625 34.539062 -11.285156 29.554688 -11.285156 C 27.609375 -11.285156 26.804688 -12.429688 26.804688 -13.917969 C 26.804688 -17.355469 31.042969 -25.316406 31.847656 -29.039062 C 32.246094 -30.929688 31.730469 -32.132812 29.324219 -32.132812 C 27.609375 -32.132812 26.347656 -31.386719 25.601562 -29.382812 C 24.628906 -26.921875 23.542969 -24 22.566406 -21.421875 C 19.875 -14.546875 15.351562 -11.628906 11.800781 -11.628906 C 8.648438 -11.628906 6.1875 -13.34375 6.1875 -15.867188 C 6.1875 -16.265625 5.785156 -16.554688 5.328125 -16.554688 C 0.746094 -16.554688 -2.292969 -11.914062 -2.292969 -7.21875 C -2.292969 -2.464844 0.574219 2.40625 7.617188 2.40625 Z M 7.617188 2.40625 "/></g></g></g><g fill="#ff8f27" fill-opacity="1"><g transform="translate(92.611333, 183.278102)"><g><path d="M 11.511719 -30.988281 C 14.492188 -30.988281 16.839844 -32.132812 17.183594 -35.683594 C 17.46875 -39.234375 15.121094 -40.324219 12.199219 -40.324219 C 9.050781 -40.324219 6.472656 -39.121094 6.472656 -35.054688 C 6.472656 -32.019531 8.761719 -30.988281 11.511719 -30.988281 Z M 5.15625 0 C 12.542969 0 16.210938 -11.226562 18.042969 -14.320312 C 18.613281 -15.351562 16.382812 -17.070312 15.464844 -15.695312 C 14.320312 -13.976562 13.230469 -12.832031 11.511719 -12.832031 C 9.964844 -12.832031 8.933594 -13.804688 8.933594 -15.695312 C 8.933594 -18.785156 11.511719 -22.566406 11.511719 -26.0625 C 11.511719 -27.894531 10.769531 -28.640625 9.566406 -28.640625 C 6.300781 -28.640625 3.953125 -24 1.316406 -15.695312 C 0.457031 -12.945312 -0.113281 -9.851562 -0.113281 -7.160156 C -0.113281 -3.148438 1.316406 0 5.15625 0 Z M 5.15625 0 "/></g></g></g><g fill="#ff8f27" fill-opacity="1"><g transform="translate(106.699615, 183.278102)"><g><path d="M 23.542969 -15.695312 C 22.394531 -13.976562 21.191406 -12.714844 19.472656 -12.660156 C 18.730469 -16.210938 15.695312 -20.792969 15.695312 -21.878906 C 15.695312 -24.171875 19.875 -24.34375 19.816406 -26.175781 C 19.875 -28.007812 18.15625 -30.070312 14.605469 -30.070312 C 9.679688 -30.070312 5.613281 -21.535156 1.546875 -16.039062 L 1.316406 -15.695312 C -2.121094 -9.964844 -0.917969 -0.0585938 9.164062 -0.0585938 C 19.816406 -0.0585938 24.515625 -10.941406 26.117188 -14.261719 C 26.632812 -15.351562 24.457031 -17.070312 23.542969 -15.695312 Z M 7.101562 -11.855469 C 5.210938 -11.855469 3.894531 -12.886719 3.894531 -14.261719 C 5.210938 -15.921875 6.988281 -18.273438 8.417969 -20.390625 C 8.933594 -21.136719 9.394531 -21.136719 9.792969 -20.390625 C 10.597656 -18.84375 11.054688 -17.414062 11.054688 -16.039062 C 11.054688 -13.6875 9.621094 -11.855469 7.101562 -11.855469 Z M 7.101562 -11.855469 "/></g></g></g><g fill="#ff8f27" fill-opacity="1"><g transform="translate(128.862894, 183.278102)"><g><path d="M 3.894531 0 C 7.675781 0 8.417969 -3.148438 8.417969 -6.070312 L 8.417969 -8.648438 C 8.417969 -13.746094 11.285156 -18.5 14.605469 -18.5 C 15.921875 -18.5 16.78125 -17.8125 16.78125 -16.496094 C 16.78125 -14.148438 14.089844 -10.308594 14.089844 -5.957031 C 14.089844 -2.75 15.351562 0 19.128906 0 C 26.863281 0 30.757812 -11.113281 32.589844 -14.261719 C 33.222656 -15.351562 30.929688 -17.070312 30.011719 -15.695312 C 28.867188 -13.976562 27.78125 -12.773438 26.0625 -12.773438 C 24.226562 -12.773438 23.425781 -13.6875 23.425781 -15.636719 C 23.425781 -18.5 25.257812 -20.332031 25.257812 -23.371094 C 25.257812 -26.234375 23.597656 -28.640625 20.105469 -28.640625 C 17.585938 -28.640625 15.292969 -27.4375 13.171875 -25.375 C 11.914062 -24.113281 10.996094 -24.34375 11.628906 -26.691406 C 12.316406 -29.382812 14.320312 -32.476562 15.808594 -35.796875 C 17.46875 -39.464844 16.78125 -41.183594 14.433594 -41.183594 C 9.792969 -41.183594 7.160156 -32.417969 1.375 -15.695312 C 0.230469 -12.429688 -0.574219 -8.820312 -0.574219 -5.898438 C -0.574219 -2.519531 0.574219 0 3.894531 0 Z M 3.894531 0 "/></g></g></g><g fill="#ff8f27" fill-opacity="1"><g transform="translate(157.55489, 183.278102)"><g><path d="M 7.046875 2.40625 C 12.488281 2.40625 17.46875 -1.03125 21.652344 -7.273438 C 21.9375 -2.519531 25.085938 0.574219 30.070312 0.574219 C 36.714844 0.574219 43.074219 -4.984375 43.074219 -13.632812 C 43.074219 -17.183594 41.8125 -19.300781 40.324219 -20.792969 C 40.035156 -21.136719 39.921875 -21.824219 40.839844 -22.050781 C 45.191406 -22.855469 48.226562 -26.921875 48.226562 -31.386719 C 48.226562 -37.460938 42.386719 -42.613281 29.957031 -42.613281 C 14.433594 -42.613281 4.8125 -34.136719 4.8125 -24.171875 C 4.8125 -20.277344 7.273438 -16.726562 11.972656 -16.726562 C 17.527344 -16.726562 20.503906 -21.652344 19.472656 -24.171875 C 18.214844 -24.171875 17.296875 -25.429688 17.296875 -27.09375 C 17.296875 -32.589844 23.027344 -34.9375 29.667969 -34.9375 C 34.195312 -34.9375 37.976562 -33.507812 37.976562 -29.957031 C 37.976562 -26.40625 35.398438 -24.457031 32.992188 -24.457031 C 31.160156 -24.457031 30.757812 -25.945312 31.847656 -29.039062 C 32.417969 -30.929688 31.730469 -32.132812 29.324219 -32.132812 C 27.609375 -32.132812 26.347656 -31.386719 25.601562 -29.382812 C 24.628906 -26.921875 23.542969 -24 22.566406 -21.421875 C 19.875 -14.492188 15.179688 -11.628906 11.339844 -11.628906 C 8.363281 -11.628906 5.613281 -13.34375 5.613281 -15.867188 C 5.613281 -16.265625 5.210938 -16.554688 4.753906 -16.554688 C 0.171875 -16.554688 -2.863281 -11.914062 -2.863281 -7.21875 C -2.863281 -2.464844 0.402344 2.40625 7.046875 2.40625 Z M 30.585938 -11.855469 C 28.296875 -11.855469 27.320312 -13.804688 27.320312 -15.867188 C 27.320312 -18.101562 28.695312 -20.332031 31.214844 -20.332031 C 33.792969 -20.390625 34.9375 -18.902344 34.9375 -17.296875 C 34.9375 -14.605469 33.335938 -11.855469 30.585938 -11.855469 Z M 30.585938 -11.855469 "/></g></g></g><g fill="#ff8f27" fill-opacity="1"><g transform="translate(203.084108, 183.278102)"><g><path d="M 28.582031 -15.695312 C 27.207031 -13.6875 25.660156 -12.886719 24 -12.886719 L 23.597656 -12.886719 C 24.171875 -14.777344 24.457031 -16.78125 24.457031 -18.785156 C 24.457031 -26.003906 20.792969 -28.640625 16.09375 -28.640625 C 6.988281 -28.640625 0.34375 -18.214844 0.34375 -9.621094 C 0.34375 -3.664062 4.066406 0 9.222656 0 C 13.515625 0 17.585938 -2.519531 20.449219 -6.414062 L 21.136719 -6.414062 C 26.691406 -6.414062 29.496094 -10.769531 31.160156 -14.261719 C 31.789062 -15.578125 29.269531 -16.667969 28.582031 -15.695312 Z M 12.488281 -11.855469 C 10.308594 -11.855469 9.507812 -13.289062 9.507812 -14.949219 C 9.507812 -17.46875 11.398438 -20.277344 14.203125 -20.277344 C 16.4375 -20.277344 17.355469 -18.902344 17.355469 -17.242188 C 17.355469 -14.835938 15.351562 -11.855469 12.488281 -11.855469 Z M 12.488281 -11.855469 "/></g></g></g><g fill="#ff8f27" fill-opacity="1"><g transform="translate(230.344367, 183.278102)"><g><path d="M 6.070312 0 C 10.136719 0 13.574219 -3.722656 15.867188 -8.363281 L 16.09375 -8.363281 C 15.40625 -3.609375 17.070312 0 21.019531 0 C 27.378906 0 30.527344 -8.933594 33.335938 -14.261719 C 33.910156 -15.351562 31.617188 -17.070312 30.757812 -15.695312 C 29.613281 -13.859375 28.179688 -12.773438 26.234375 -12.773438 C 23.710938 -12.773438 23.082031 -15.0625 25.03125 -19.246094 C 26.289062 -22.566406 27.78125 -24.34375 27.78125 -26.519531 C 27.78125 -27.78125 27.265625 -28.640625 25.773438 -28.640625 C 23.082031 -28.640625 22.683594 -26.460938 20.792969 -26.460938 C 19.300781 -26.460938 19.53125 -28.640625 14.949219 -28.640625 C 5.097656 -28.640625 0.171875 -16.609375 0.171875 -8.648438 C 0.171875 -3.550781 2.175781 0 6.070312 0 Z M 11.800781 -11.855469 C 10.023438 -11.855469 8.933594 -13.003906 8.933594 -14.949219 C 8.933594 -17.46875 10.824219 -20.277344 13.804688 -20.277344 C 15.636719 -20.277344 16.78125 -19.128906 16.78125 -17.242188 C 16.78125 -14.835938 14.777344 -11.855469 11.800781 -11.855469 Z M 11.800781 -11.855469 "/></g></g></g><g fill="#ff8f27" fill-opacity="1"><g transform="translate(259.780881, 183.278102)"><g><path d="M 23.941406 -15.695312 C 22.796875 -13.976562 21.707031 -12.773438 19.988281 -12.773438 C 17.414062 -12.773438 16.4375 -13.976562 16.4375 -15.578125 C 16.4375 -19.128906 18.902344 -21.535156 18.902344 -24.800781 C 18.902344 -27.894531 13.402344 -31.558594 8.019531 -31.558594 C 4.925781 -31.558594 2.921875 -28.753906 2.921875 -26.40625 C 2.921875 -24.34375 3.664062 -23.597656 4.8125 -23.199219 C 3.835938 -20.5625 2.40625 -17.242188 1.316406 -15.695312 C 0.574219 -14.605469 3.148438 -12.773438 3.894531 -14.261719 C 4.8125 -16.152344 6.703125 -20.046875 7.734375 -22.339844 C 10.023438 -21.480469 10.769531 -20.046875 10.769531 -19.472656 C 10.769531 -16.726562 6.757812 -11.339844 6.757812 -6.015625 C 6.757812 -3.09375 8.363281 0 13.058594 0 C 20.792969 0 24.6875 -11.113281 26.519531 -14.261719 C 27.148438 -15.351562 24.859375 -17.070312 23.941406 -15.695312 Z M 23.941406 -15.695312 "/></g></g></g><g fill="#ff8f27" fill-opacity="1"><g transform="translate(282.402324, 183.278102)"><g><path d="M 6.703125 0 C 10.195312 0 13.515625 -3.722656 15.867188 -8.363281 L 16.09375 -8.363281 C 15.464844 -3.609375 17.355469 0 21.019531 0 C 27.378906 0 30.527344 -8.933594 33.335938 -14.261719 C 33.910156 -15.351562 31.617188 -17.070312 30.757812 -15.695312 C 29.613281 -13.859375 28.179688 -12.773438 26.234375 -12.773438 C 23.710938 -12.773438 23.082031 -15.0625 25.03125 -19.246094 L 31.503906 -35.796875 C 32.992188 -39.0625 32.191406 -41.183594 30.183594 -41.183594 C 28.46875 -41.183594 26.347656 -40.207031 24.171875 -34.9375 C 21.707031 -29.039062 21.707031 -25.890625 20.792969 -25.890625 C 19.300781 -25.890625 19.53125 -28.640625 14.949219 -28.640625 C 5.097656 -28.640625 0.171875 -16.609375 0.171875 -8.132812 C 0.171875 -3.550781 2.175781 0 6.703125 0 Z M 11.914062 -11.855469 C 9.738281 -11.855469 8.933594 -13.289062 8.933594 -14.949219 C 8.933594 -17.46875 10.824219 -20.277344 13.632812 -20.277344 C 15.867188 -20.277344 16.78125 -18.902344 16.78125 -17.242188 C 16.78125 -14.835938 14.777344 -11.855469 11.914062 -11.855469 Z M 11.914062 -11.855469 "/></g></g></g></svg>